<svg width="36" height="36" viewBox="0 0 36 36" fill="none" xmlns="http://www.w3.org/2000/svg">
<g clip-path="url(#clip0_1217_9382)">
<path d="M36 0H0V36H36V0Z" fill="white"/>
<path d="M28.7865 26.3011L28.7797 27.5169L17.1034 34.3026L7.21362 28.5901L7.22042 27.3743L18.8966 20.5886L28.7865 26.3011Z" fill="#5A7ABF"/>
<path d="M28.7831 26.3018L28.777 27.5176L17.1041 34.3012L17.1102 33.0854L28.7831 26.3018Z" fill="#5A7ABF"/>
<path d="M17.1102 33.0853L17.1041 34.3012L7.21631 28.5874L7.22242 27.3708L17.1102 33.0853Z" fill="#5670AA"/>
<path d="M28.783 26.3017L17.1102 33.0853L7.22241 27.3708L18.8959 20.5872L28.783 26.3017Z" fill="#6087DB"/>
<path d="M17.1517 31.1597L8.98511 26.4138L20.3237 21.5769L27.015 25.4649L17.1517 31.1597Z" fill="#ADB4C2"/>
<path d="M27.0149 25.4649L27.0176 26.441L17.1543 32.1351L17.1516 31.1597L27.0149 25.4649Z" fill="#C9D1E2"/>
<path d="M17.1353 25.469L8.96875 20.7231L20.3074 15.8862L26.9986 19.7748L17.1353 25.469Z" fill="#E3E7F0"/>
<path d="M17.1326 24.4936L8.96606 19.7477L20.3047 14.9108L26.996 18.7994L17.1326 24.4936Z" fill="#ADB4C2"/>
<path d="M17.1163 18.8036L8.94971 14.0577L20.2883 9.22076L26.9796 13.1094L17.1163 18.8036Z" fill="#E3E7F0"/>
<path d="M17.1136 17.8282L8.94702 13.0823L20.2857 8.24536L26.9769 12.1334L17.1136 17.8282Z" fill="#ADB4C2"/>
<path d="M8.98647 27.3872V26.4159L8.93213 7.3902C11.8325 8.64299 14.5734 10.2369 17.0967 12.1381C17.441 18.5787 17.4906 24.9283 17.151 31.157L17.1578 32.1351L8.98647 27.3872Z" fill="#B0BACF"/>
<path d="M17.0979 12.1381L8.93066 7.39224L18.7947 1.69745L26.9619 6.44402C25.42 8.91171 21.1061 10.4753 17.0979 12.1381Z" fill="#E3E7F0"/>
<path d="M9.83887 7.39361L10.6186 7.84667L18.7934 3.12659V2.22388L9.83887 7.39361Z" fill="#C9D1E2"/>
<path d="M18.7933 2.22388V3.12659L25.2733 6.89233L26.0531 6.44267L18.7933 2.22388Z" fill="#B0BACF"/>
<path d="M25.2734 6.89232L18.7934 3.12659L10.6187 7.84666L17.0987 11.6124L25.2734 6.89232Z" fill="#4C5975"/>
<path d="M27.0135 25.4656L17.1509 31.1577L17.1373 26.0973L17.1305 26.1041L17.1169 19.4407V18.8022L17.0966 12.1388L26.9592 6.44672L26.9796 13.1101V13.7418L26.9932 19.7803L27 19.7735L27.0135 25.4656Z" fill="#C9D1E2"/>
<path d="M22.8451 10.4346V12.5443C27.1237 10.0868 23.5359 12.1476 25.1885 11.1974V9.08832L22.8451 10.4346Z" fill="#2563EB"/>
<path d="M25.1912 9.08627L25.6999 8.79352V11.3964L25.1912 11.1953V9.08627Z" fill="#F1F4FC"/>
<path d="M25.1912 11.1953L25.7 11.3964L22.8451 13.0367V12.5436L25.1912 11.1953Z" fill="white"/>
<path opacity="0.2" d="M23.7913 9.88913L25.1885 10.6906V9.95638L24.4318 9.52234L23.7913 9.88913ZM22.8451 10.4346V11.8223L23.4741 12.1829L24.9772 11.3196L23.1345 10.2675L22.8451 10.4346Z" fill="#FDFDFE"/>
<path d="M18.375 12.9987V15.1085C22.6529 12.651 19.0658 14.7118 20.7184 13.7615V11.6518C20.6498 11.6912 21.1022 11.4304 18.375 12.9987Z" fill="#2563EB"/>
<path d="M20.7211 11.6497L21.2298 11.3577V13.9605L20.7211 13.7595V11.6497Z" fill="#F1F4FC"/>
<path d="M20.7211 13.7595L21.2299 13.9605L18.375 15.6009V15.1071L20.7211 13.7595Z" fill="white"/>
<path opacity="0.2" d="M19.3212 12.4533L20.7184 13.2548V12.5199L19.961 12.0858L19.3212 12.4533ZM18.375 12.9987V14.3857L19.004 14.7464L20.5065 13.8838L18.6644 12.8316L18.375 12.9987Z" fill="#FDFDFE"/>
<path d="M22.8451 14.8211V16.9309C27.1237 14.4734 23.5359 16.5335 25.1885 15.5839V13.4742L22.8451 14.8211Z" fill="#2563EB"/>
<path d="M25.1912 13.4721L25.6999 13.1801V15.7822L25.1912 15.5812V13.4721Z" fill="#F1F4FC"/>
<path d="M25.1912 15.5812L25.7 15.7822L22.8451 17.4233V16.9295L25.1912 15.5812Z" fill="white"/>
<path opacity="0.2" d="M23.7913 14.2757L25.1885 15.0772V14.3422L24.4318 13.9082L23.7913 14.2757ZM22.8451 14.8211V16.2081L23.4741 16.5688L24.9772 15.7062L23.1345 14.654L22.8451 14.8211Z" fill="#FDFDFE"/>
<path d="M18.375 17.3853V19.4943C22.6529 17.0375 19.0658 19.0977 20.7184 18.1474V16.0383L18.375 17.3853Z" fill="#2563EB"/>
<path d="M20.7211 16.0363L21.2298 15.7435V18.3464L20.7211 18.1453V16.0363Z" fill="#F1F4FC"/>
<path d="M20.7211 18.1454L21.2299 18.3464L18.375 19.9868V19.4937L20.7211 18.1454Z" fill="white"/>
<path opacity="0.2" d="M19.3212 16.8391L20.7184 17.6407V16.9064L19.961 16.4724L19.3212 16.8391ZM18.375 17.3853V18.7723L19.004 19.133L20.5065 18.2703L18.6644 17.2182L18.375 17.3853Z" fill="#FDFDFE"/>
<path d="M22.8451 19.207V21.3167C27.1237 18.8592 23.5359 20.92 25.1885 19.9698V17.86L22.8451 19.207Z" fill="#2563EB"/>
<path d="M25.1912 17.8587L25.6999 17.566V20.1688L25.1912 19.9678V17.8587Z" fill="#F1F4FC"/>
<path d="M25.1912 19.9678L25.7 20.1688L22.8451 21.8092V21.3161L25.1912 19.9678Z" fill="white"/>
<path opacity="0.2" d="M23.7913 18.6616L25.1885 19.4631V18.7288L24.4318 18.2941L23.7913 18.6616ZM22.8451 19.207V20.5947L23.4741 20.9547L24.9772 20.0921L23.1345 19.0399L22.8451 19.207Z" fill="#FDFDFE"/>
<path d="M18.375 21.7712V23.8809C22.6529 21.4234 19.0658 23.4836 20.7184 22.534V20.4243L18.375 21.7712Z" fill="#2563EB"/>
<path d="M20.7211 20.4222L21.2298 20.1301V22.733L20.7211 22.5319V20.4222Z" fill="#F1F4FC"/>
<path d="M20.7211 22.5319L21.2299 22.733L18.375 24.3734V23.8795L20.7211 22.5319Z" fill="white"/>
<path opacity="0.2" d="M19.3212 21.2257L20.7184 22.0273V21.2923L19.961 20.8583L19.3212 21.2257ZM18.375 21.7712V23.1582L19.004 23.5189L20.5065 22.6562L18.6644 21.6041L18.375 21.7712Z" fill="#FDFDFE"/>
<path d="M10.4074 10.4604L10.006 10.2288L9.9917 16.2639L10.3945 16.0309L10.4074 10.4604Z" fill="#C9D1E2"/>
<path d="M10.3945 16.0309L9.9917 16.2639L12.5015 17.7127L12.5022 17.2481L10.3945 16.0309Z" fill="white"/>
<path d="M13.9788 12.5233L13.5767 12.291L13.5631 18.326L13.9652 18.0931L13.9788 12.5233Z" fill="#C9D1E2"/>
<path d="M16.0736 19.311L13.9652 18.0931L13.5631 18.3261L16.0722 19.7749L16.0736 19.311Z" fill="white"/>
<path d="M12.5185 11.6762L12.5049 17.246C8.22295 14.7756 12.763 17.3948 10.3925 16.0302L10.406 10.4604C10.4746 10.5005 12.6516 11.7537 12.5185 11.6762ZM13.9789 12.5233L13.9653 18.0931L16.0737 19.311L16.0913 13.7445L13.9789 12.5233Z" fill="#2563EB"/>
<path opacity="0.25" d="M12.5185 11.6769L12.5117 14.0271L10.3925 15.8475L10.3992 12.9267L12.1245 11.446L12.5185 11.6769ZM12.5117 14.523V15.3177L11.16 16.4724L10.6098 16.1532L12.5117 14.523ZM16.0913 13.7371L16.0845 16.0873L13.9653 17.9076L13.9721 14.9869L15.6974 13.5061L16.0913 13.7371ZM16.0845 16.5831V17.3778L14.7328 18.5326L14.1826 18.2133L16.0845 16.5831Z" fill="white"/>
<path d="M10.4074 18.5047L10.006 18.2724L9.9917 24.3075L10.3945 24.0752L10.4074 18.5047Z" fill="#C9D1E2"/>
<path d="M10.3945 24.0752L9.9917 24.3075L12.5015 25.7563L12.5022 25.2924L10.3945 24.0752Z" fill="white"/>
<path d="M13.9788 20.5669L13.5767 20.3346L13.5631 26.3697L13.9652 26.1374L13.9788 20.5669Z" fill="#C9D1E2"/>
<path d="M16.0736 27.3545L13.9652 26.1373L13.5631 26.3696L16.0722 27.8185L16.0736 27.3545Z" fill="white"/>
<path d="M12.5185 19.7205L12.5049 25.2904C8.22295 22.8193 12.763 25.4384 10.3925 24.0745L10.406 18.5047L12.5185 19.7205ZM13.9789 20.5669L13.9653 26.1374L16.0737 27.3546L16.0913 21.7882L13.9789 20.5669Z" fill="#2563EB"/>
<path opacity="0.25" d="M12.5185 19.7205L12.5117 22.0707L10.3925 23.8911L10.3992 20.9703L12.1245 19.4896L12.5185 19.7205ZM12.5117 22.5665V23.3613L11.16 24.516L10.6098 24.1967L12.5117 22.5665ZM16.0913 21.7813L16.0845 24.1315L13.9653 25.9519L13.9721 23.0311L15.6974 21.5504L16.0913 21.7813ZM16.0845 24.6274V25.4221L14.7328 26.5768L14.1826 26.2576L16.0845 24.6274Z" fill="white"/>
<path d="M22.5319 29.2762L22.2955 29.139L22.4667 29.0398L22.7031 29.1777L22.5319 29.2762Z" fill="white"/>
<path d="M25.126 27.7791L24.8896 27.6412L24.8767 23.1956L25.1131 23.3328L25.126 27.7791Z" fill="#DEE7FB"/>
<path d="M22.5319 29.2762L22.2956 29.139L22.2833 24.6933L22.5197 24.8305L22.5319 29.2762Z" fill="#777C86"/>
<path d="M22.5319 29.2761L22.2955 29.1389L22.2826 24.4997L22.519 24.6369L22.5319 29.2761Z" fill="#DEE7FB"/>
<path d="M25.2836 23.0406L25.2972 27.6799L25.126 27.7791L25.1131 23.3327L22.6909 24.7313L22.7031 29.1776L22.5319 29.2761L22.519 24.6369L25.2836 23.0406Z" fill="#B0BACF"/>
<path d="M25.2843 23.0434L22.5198 24.6396L19.925 26.134L19.6941 25.9981L22.282 24.497L25.0465 22.9008L25.2843 23.0434Z" fill="white"/>
<path d="M19.9413 30.7719L19.7049 30.6347L19.692 25.9954L19.9284 26.1326L19.9413 30.7719Z" fill="#DEE7FB"/>
<path d="M22.519 24.6369L22.5319 29.2761L22.5197 24.8305L20.0968 26.2291L20.1097 30.6747L19.9412 30.7718L19.9283 26.1326L22.519 24.6369Z" fill="#B0BACF"/>
<path d="M24.8903 27.6419L22.7032 28.9053L22.6896 24.7347L24.8767 23.4713L24.8903 27.6419ZM22.2956 29.143C17.8737 31.6956 23.6752 28.3442 20.1356 30.3928L20.1084 30.4064L20.0948 26.2358L22.282 24.9724L22.2956 29.143Z" fill="#2563EB"/>
<path opacity="0.25" d="M22.2887 26.1611L20.1355 30.3928L20.1084 30.4064L20.1016 28.0766L21.4329 25.4615L22.2819 24.9724L22.2887 26.1611ZM22.2887 26.8336V27.5943L21.168 29.7951L20.6246 30.1075L22.2887 26.8336ZM24.8767 23.4713V23.8449L22.7031 28.1241L22.6895 25.7536L23.4231 24.3068L24.8767 23.4713ZM24.8834 25.2713L23.165 28.6336L22.7031 28.9053V28.7898L24.8767 24.5106L24.8834 25.2713Z" fill="white"/>
<path d="M12.4588 13.3798C11.9629 13.3798 11.5608 13.8036 11.5608 14.3253C11.5608 13.8036 11.1587 13.3804 10.6628 13.3804C11.1587 13.3804 11.5608 12.9566 11.5608 12.4349C11.5608 12.9566 11.9629 13.3798 12.4588 13.3798Z" fill="white"/>
</g>
<defs>
<clipPath id="clip0_1217_9382">
<rect width="36" height="36" fill="white"/>
</clipPath>
</defs>
</svg>
