<svg width="56" height="16" viewBox="0 0 56 16" fill="none" xmlns="http://www.w3.org/2000/svg">
<g id="logo.e3652a48 1" clip-path="url(#clip0_2150_12460)">
<path id="Vector" d="M0.0739268 10.1114C-0.54353 6.40197 2.80639 3.20155 6.40821 4.05879C8.66892 4.59709 10.2118 6.56017 10.2118 9.07919C10.2118 9.56304 9.82648 9.95484 9.3506 9.95484H2.40133C2.28525 9.95484 2.20045 10.0687 2.23338 10.1817C2.61539 11.4793 3.68071 12.3239 5.21364 12.3239C6.17276 12.3239 6.96146 11.9406 7.49659 11.2959C7.82345 10.9016 8.3874 10.8129 8.827 11.0707C9.40989 11.4123 9.53997 12.2143 9.09127 12.7233C8.19474 13.7413 6.90962 14.3674 5.21364 14.3674C2.4532 14.3674 0.479805 12.5517 0.0739268 10.1114ZM2.54541 8.01514H7.66619C7.78392 8.01514 7.86952 7.89793 7.83251 7.78495C7.44145 6.57945 6.46504 5.95492 5.12968 5.95492C3.79432 5.95492 2.84261 6.67151 2.38404 7.77153C2.33547 7.88706 2.42191 8.01514 2.54541 8.01514Z" fill="#0040E7"/>
<path id="Vector_2" d="M10.8701 7.99528C10.8701 4.46646 13.5221 1.63281 17.171 1.63281C19.1612 1.63281 20.8223 2.42807 21.9539 3.66425C22.4533 4.2094 22.3269 5.07828 21.6943 5.45949C21.2262 5.74154 20.5557 5.62946 20.2043 5.20985C19.4559 4.31545 18.453 3.87267 17.1881 3.87267C14.8907 3.87267 13.1509 5.7559 13.1509 7.99578C13.1509 10.2356 14.8737 12.1189 17.2724 12.1189C18.9344 12.1189 20.0918 11.2926 20.6512 9.97071C20.7582 9.71828 20.5737 9.43807 20.3007 9.43807H17.9988C17.3923 9.43807 16.9008 8.94433 16.9008 8.33526C16.9008 7.7262 17.3923 7.23245 17.9988 7.23245H22.3906C22.8941 7.23245 23.3027 7.64283 23.3027 8.1486C23.3027 11.4908 20.9717 14.3582 17.2724 14.3582C13.5733 14.3582 10.8701 11.4398 10.8701 7.99578V7.99528Z" fill="#0040E7"/>
<path id="Vector_3" d="M37.3833 1.95898H37.3847C37.8787 1.95898 38.3173 2.27219 38.4727 2.73621L40.9024 9.98733C40.9925 10.2565 41.377 10.256 41.4668 9.98688L43.8814 2.73806C44.0362 2.27312 44.4756 1.95898 44.9705 1.95898C45.7541 1.95898 46.3067 2.71904 46.0572 3.45357L42.7285 13.2633C42.5045 13.9226 41.8798 14.3671 41.1764 14.3671C40.4731 14.3671 39.8482 13.9226 39.6245 13.2633L36.2957 3.45357C36.0466 2.71904 36.5993 1.95898 37.3823 1.95898H37.3833Z" fill="#0040E7"/>
<g id="Mask group">
<mask id="mask0_2150_12460" style="mask-type:alpha" maskUnits="userSpaceOnUse" x="23" y="1" width="14" height="14">
<g id="Group">
<path id="Vector_4" d="M23.8145 8.03899C23.8145 4.50918 26.6158 1.64453 30.1467 1.64453C33.6776 1.64453 36.496 4.50918 36.496 8.03899C36.496 11.5688 33.678 14.4334 30.1467 14.4334C26.6154 14.4334 23.8145 11.5859 23.8145 8.03899ZM34.2046 8.03899C34.2046 5.77084 32.4049 3.92932 30.1471 3.92932C27.8894 3.92932 26.1063 5.77134 26.1063 8.03899C26.1063 10.3066 27.889 12.1486 30.1467 12.1486C32.4044 12.1486 34.2042 10.3071 34.2042 8.03899H34.2046Z" fill="black"/>
</g>
</mask>
<g mask="url(#mask0_2150_12460)">
<g id="Group_2">
<path id="Vector_5" d="M25.4901 1.63232L31.6015 7.99479L24.3147 14.1878L23.5557 9.81042L23.878 3.906L25.4901 1.63232Z" fill="#F2C500"/>
<path id="Vector_6" d="M38.4225 8.00052H31.552L25.0137 1.13503L29.7412 0.0234375L35.6197 0.347189L38.4225 8.00052Z" fill="#0040E7"/>
<path id="Vector_7" d="M37.8829 8.00076L31.5483 7.94238L23.8936 14.4489L29.7411 16.0237L35.6197 15.6999L37.8829 8.00076Z" fill="#A60C0C"/>
</g>
</g>
</g>
<path id="Vector_8" d="M46.1172 8.74089C46.1172 8.42142 46.391 8.16309 46.7282 8.16309H48.3646C49.7226 8.16309 50.729 9.14893 50.729 10.3731C50.729 11.5972 49.7218 12.591 48.3555 12.591H47.9512C47.614 12.591 47.3401 12.8499 47.3401 13.1688V13.7894C47.3401 14.1083 47.0663 14.3672 46.7291 14.3672C46.3918 14.3672 46.1176 14.1083 46.1176 13.7894L46.1172 8.74089ZM47.3393 9.46897V11.2851C47.3393 11.4149 47.4509 11.5201 47.588 11.5201H48.274C48.9934 11.5201 49.497 11.0103 49.497 10.3725C49.497 9.7347 48.9934 9.23349 48.274 9.23349H47.588C47.4509 9.23349 47.3393 9.33868 47.3393 9.4684V9.46897Z" fill="#0040E7"/>
<path id="Vector_9" d="M54.7026 11.8088H52.6866C52.5972 11.8088 52.5251 11.8821 52.5251 11.9729V13.7887C52.5251 14.1078 52.2711 14.3668 51.9569 14.3668C51.6431 14.3668 51.3887 14.1082 51.3887 13.7887V8.74118C51.3887 8.42208 51.6427 8.16309 51.9569 8.16309C52.2707 8.16309 52.5251 8.42167 52.5251 8.74118V10.54C52.5251 10.6307 52.5972 10.7041 52.6866 10.7041H54.7026C54.7919 10.7041 54.864 10.6307 54.864 10.54V8.74118C54.864 8.42208 55.118 8.16309 55.4322 8.16309C55.746 8.16309 56.0004 8.42167 56.0004 8.74118V13.7891C56.0004 14.1082 55.7464 14.3672 55.4322 14.3672C55.1184 14.3672 54.864 14.1086 54.864 13.7891V11.9733C54.864 11.8826 54.7919 11.8088 54.7026 11.8088Z" fill="#0040E7"/>
</g>
<defs>
<clipPath id="clip0_2150_12460">
<rect width="56" height="16" fill="white"/>
</clipPath>
</defs>
</svg>
